<mxfile host="app.diagrams.net" modified="2024-05-16T01:14:12.258Z" agent="Mozilla/5.0 (Windows NT 10.0; Win64; x64) AppleWebKit/537.36 (KHTML, like Gecko) Chrome/124.0.0.0 Safari/537.36" etag="teea_XGJdr13YyMtP0Fn" version="24.4.0" type="github">
  <diagram name="第 1 页" id="Ce90Jf3MvmjS0aOVNA00">
    <mxGraphModel dx="1020" dy="655" grid="0" gridSize="10" guides="1" tooltips="1" connect="1" arrows="1" fold="1" page="1" pageScale="1" pageWidth="827" pageHeight="1169" math="0" shadow="0">
      <root>
        <mxCell id="0" />
        <mxCell id="1" parent="0" />
        <mxCell id="gKnQh6ZGJTZB9TMc3dMJ-1" style="edgeStyle=orthogonalEdgeStyle;rounded=0;orthogonalLoop=1;jettySize=auto;html=1;exitX=1;exitY=0.5;exitDx=0;exitDy=0;entryX=0;entryY=0.5;entryDx=0;entryDy=0;" parent="1" source="gKnQh6ZGJTZB9TMc3dMJ-10" target="gKnQh6ZGJTZB9TMc3dMJ-13" edge="1">
          <mxGeometry relative="1" as="geometry" />
        </mxCell>
        <mxCell id="gKnQh6ZGJTZB9TMc3dMJ-2" style="edgeStyle=orthogonalEdgeStyle;rounded=0;orthogonalLoop=1;jettySize=auto;html=1;exitX=1;exitY=0.5;exitDx=0;exitDy=0;entryX=0;entryY=0.5;entryDx=0;entryDy=0;" parent="1" source="gKnQh6ZGJTZB9TMc3dMJ-10" target="gKnQh6ZGJTZB9TMc3dMJ-12" edge="1">
          <mxGeometry relative="1" as="geometry" />
        </mxCell>
        <mxCell id="gKnQh6ZGJTZB9TMc3dMJ-3" style="edgeStyle=orthogonalEdgeStyle;rounded=0;orthogonalLoop=1;jettySize=auto;html=1;exitX=1;exitY=0.5;exitDx=0;exitDy=0;entryX=0;entryY=0.5;entryDx=0;entryDy=0;" parent="1" source="gKnQh6ZGJTZB9TMc3dMJ-10" target="gKnQh6ZGJTZB9TMc3dMJ-15" edge="1">
          <mxGeometry relative="1" as="geometry" />
        </mxCell>
        <mxCell id="gKnQh6ZGJTZB9TMc3dMJ-4" style="edgeStyle=orthogonalEdgeStyle;rounded=0;orthogonalLoop=1;jettySize=auto;html=1;exitX=1;exitY=0.5;exitDx=0;exitDy=0;entryX=0;entryY=0.5;entryDx=0;entryDy=0;" parent="1" source="gKnQh6ZGJTZB9TMc3dMJ-10" target="gKnQh6ZGJTZB9TMc3dMJ-19" edge="1">
          <mxGeometry relative="1" as="geometry" />
        </mxCell>
        <mxCell id="gKnQh6ZGJTZB9TMc3dMJ-5" style="edgeStyle=orthogonalEdgeStyle;rounded=0;orthogonalLoop=1;jettySize=auto;html=1;exitX=1;exitY=0.5;exitDx=0;exitDy=0;entryX=0;entryY=0.5;entryDx=0;entryDy=0;" parent="1" source="gKnQh6ZGJTZB9TMc3dMJ-10" target="gKnQh6ZGJTZB9TMc3dMJ-20" edge="1">
          <mxGeometry relative="1" as="geometry" />
        </mxCell>
        <mxCell id="gKnQh6ZGJTZB9TMc3dMJ-6" style="edgeStyle=orthogonalEdgeStyle;rounded=0;orthogonalLoop=1;jettySize=auto;html=1;exitX=1;exitY=0.5;exitDx=0;exitDy=0;entryX=0;entryY=0.5;entryDx=0;entryDy=0;" parent="1" source="gKnQh6ZGJTZB9TMc3dMJ-10" target="gKnQh6ZGJTZB9TMc3dMJ-25" edge="1">
          <mxGeometry relative="1" as="geometry" />
        </mxCell>
        <mxCell id="gKnQh6ZGJTZB9TMc3dMJ-7" style="edgeStyle=orthogonalEdgeStyle;rounded=0;orthogonalLoop=1;jettySize=auto;html=1;exitX=1;exitY=0.5;exitDx=0;exitDy=0;entryX=0;entryY=0.5;entryDx=0;entryDy=0;" parent="1" source="gKnQh6ZGJTZB9TMc3dMJ-10" target="gKnQh6ZGJTZB9TMc3dMJ-32" edge="1">
          <mxGeometry relative="1" as="geometry" />
        </mxCell>
        <mxCell id="gKnQh6ZGJTZB9TMc3dMJ-8" style="edgeStyle=orthogonalEdgeStyle;rounded=0;orthogonalLoop=1;jettySize=auto;html=1;exitX=1;exitY=0.5;exitDx=0;exitDy=0;entryX=0;entryY=0.5;entryDx=0;entryDy=0;" parent="1" source="gKnQh6ZGJTZB9TMc3dMJ-10" target="gKnQh6ZGJTZB9TMc3dMJ-36" edge="1">
          <mxGeometry relative="1" as="geometry" />
        </mxCell>
        <mxCell id="gKnQh6ZGJTZB9TMc3dMJ-9" style="edgeStyle=orthogonalEdgeStyle;rounded=0;orthogonalLoop=1;jettySize=auto;html=1;exitX=1;exitY=0.5;exitDx=0;exitDy=0;entryX=0;entryY=0.5;entryDx=0;entryDy=0;fontSize=15;" parent="1" source="gKnQh6ZGJTZB9TMc3dMJ-10" target="gKnQh6ZGJTZB9TMc3dMJ-42" edge="1">
          <mxGeometry relative="1" as="geometry" />
        </mxCell>
        <mxCell id="gKnQh6ZGJTZB9TMc3dMJ-10" value="薪资预测系统" style="rounded=1;whiteSpace=wrap;html=1;fontSize=15;fillColor=#008a00;strokeColor=#005700;fontColor=#ffffff;" parent="1" vertex="1">
          <mxGeometry x="10" y="260" width="120" height="60" as="geometry" />
        </mxCell>
        <mxCell id="gKnQh6ZGJTZB9TMc3dMJ-11" style="edgeStyle=orthogonalEdgeStyle;rounded=0;orthogonalLoop=1;jettySize=auto;html=1;exitX=1;exitY=0.5;exitDx=0;exitDy=0;entryX=0;entryY=0.5;entryDx=0;entryDy=0;" parent="1" source="gKnQh6ZGJTZB9TMc3dMJ-12" target="gKnQh6ZGJTZB9TMc3dMJ-17" edge="1">
          <mxGeometry relative="1" as="geometry" />
        </mxCell>
        <mxCell id="gKnQh6ZGJTZB9TMc3dMJ-12" value="首页" style="rounded=1;whiteSpace=wrap;html=1;fontSize=15;fillColor=#d5e8d4;strokeColor=#82b366;" parent="1" vertex="1">
          <mxGeometry x="220" y="100" width="120" height="40" as="geometry" />
        </mxCell>
        <mxCell id="gKnQh6ZGJTZB9TMc3dMJ-13" value="登录与注册" style="rounded=1;whiteSpace=wrap;html=1;fontSize=15;fillColor=#d5e8d4;strokeColor=#82b366;" parent="1" vertex="1">
          <mxGeometry x="220" y="30" width="120" height="40" as="geometry" />
        </mxCell>
        <mxCell id="gKnQh6ZGJTZB9TMc3dMJ-14" style="edgeStyle=orthogonalEdgeStyle;rounded=0;orthogonalLoop=1;jettySize=auto;html=1;exitX=1;exitY=0.5;exitDx=0;exitDy=0;entryX=0;entryY=0.5;entryDx=0;entryDy=0;" parent="1" source="gKnQh6ZGJTZB9TMc3dMJ-15" target="gKnQh6ZGJTZB9TMc3dMJ-23" edge="1">
          <mxGeometry relative="1" as="geometry" />
        </mxCell>
        <mxCell id="gKnQh6ZGJTZB9TMc3dMJ-15" value="房源分析" style="rounded=1;whiteSpace=wrap;html=1;fontSize=15;fillColor=#d5e8d4;strokeColor=#82b366;" parent="1" vertex="1">
          <mxGeometry x="220" y="230" width="120" height="40" as="geometry" />
        </mxCell>
        <mxCell id="gKnQh6ZGJTZB9TMc3dMJ-16" style="edgeStyle=orthogonalEdgeStyle;rounded=0;orthogonalLoop=1;jettySize=auto;html=1;exitX=1;exitY=0.5;exitDx=0;exitDy=0;entryX=0;entryY=0.5;entryDx=0;entryDy=0;" parent="1" source="gKnQh6ZGJTZB9TMc3dMJ-17" target="gKnQh6ZGJTZB9TMc3dMJ-38" edge="1">
          <mxGeometry relative="1" as="geometry" />
        </mxCell>
        <mxCell id="gKnQh6ZGJTZB9TMc3dMJ-17" value="房源卡片" style="rounded=1;whiteSpace=wrap;html=1;fontSize=15;fillColor=#d5e8d4;strokeColor=#82b366;" parent="1" vertex="1">
          <mxGeometry x="390" y="100" width="120" height="40" as="geometry" />
        </mxCell>
        <mxCell id="gKnQh6ZGJTZB9TMc3dMJ-18" style="edgeStyle=orthogonalEdgeStyle;rounded=0;orthogonalLoop=1;jettySize=auto;html=1;exitX=1;exitY=0.5;exitDx=0;exitDy=0;entryX=0;entryY=0.5;entryDx=0;entryDy=0;" parent="1" source="gKnQh6ZGJTZB9TMc3dMJ-19" target="gKnQh6ZGJTZB9TMc3dMJ-21" edge="1">
          <mxGeometry relative="1" as="geometry" />
        </mxCell>
        <mxCell id="gKnQh6ZGJTZB9TMc3dMJ-19" value="房源介绍词云" style="rounded=1;whiteSpace=wrap;html=1;fontSize=15;fillColor=#d5e8d4;strokeColor=#82b366;" parent="1" vertex="1">
          <mxGeometry x="220" y="300" width="120" height="40" as="geometry" />
        </mxCell>
        <mxCell id="gKnQh6ZGJTZB9TMc3dMJ-20" value="身份证识别" style="rounded=1;whiteSpace=wrap;html=1;fontSize=15;fillColor=#fff2cc;strokeColor=#d6b656;" parent="1" vertex="1">
          <mxGeometry x="220" y="420" width="120" height="40" as="geometry" />
        </mxCell>
        <mxCell id="gKnQh6ZGJTZB9TMc3dMJ-21" value="词云" style="rounded=1;whiteSpace=wrap;html=1;fontSize=15;fillColor=#d5e8d4;strokeColor=#82b366;" parent="1" vertex="1">
          <mxGeometry x="390" y="300" width="120" height="40" as="geometry" />
        </mxCell>
        <mxCell id="gKnQh6ZGJTZB9TMc3dMJ-22" style="edgeStyle=orthogonalEdgeStyle;rounded=0;orthogonalLoop=1;jettySize=auto;html=1;exitX=1;exitY=0.5;exitDx=0;exitDy=0;entryX=0;entryY=0.5;entryDx=0;entryDy=0;" parent="1" source="gKnQh6ZGJTZB9TMc3dMJ-23" target="gKnQh6ZGJTZB9TMc3dMJ-39" edge="1">
          <mxGeometry relative="1" as="geometry" />
        </mxCell>
        <mxCell id="gKnQh6ZGJTZB9TMc3dMJ-23" value="Echarts分析大屏" style="rounded=1;whiteSpace=wrap;html=1;fontSize=15;fillColor=#d5e8d4;strokeColor=#82b366;" parent="1" vertex="1">
          <mxGeometry x="390" y="230" width="120" height="40" as="geometry" />
        </mxCell>
        <mxCell id="gKnQh6ZGJTZB9TMc3dMJ-24" value="" style="edgeStyle=orthogonalEdgeStyle;rounded=0;orthogonalLoop=1;jettySize=auto;html=1;" parent="1" source="gKnQh6ZGJTZB9TMc3dMJ-25" target="gKnQh6ZGJTZB9TMc3dMJ-28" edge="1">
          <mxGeometry relative="1" as="geometry" />
        </mxCell>
        <mxCell id="gKnQh6ZGJTZB9TMc3dMJ-25" value="房源库" style="rounded=1;whiteSpace=wrap;html=1;fontSize=15;fillColor=#d5e8d4;strokeColor=#82b366;" parent="1" vertex="1">
          <mxGeometry x="220" y="160" width="120" height="40" as="geometry" />
        </mxCell>
        <mxCell id="gKnQh6ZGJTZB9TMc3dMJ-26" style="edgeStyle=orthogonalEdgeStyle;rounded=0;orthogonalLoop=1;jettySize=auto;html=1;exitX=1;exitY=0.5;exitDx=0;exitDy=0;entryX=0;entryY=0.5;entryDx=0;entryDy=0;" parent="1" source="gKnQh6ZGJTZB9TMc3dMJ-28" target="gKnQh6ZGJTZB9TMc3dMJ-33" edge="1">
          <mxGeometry relative="1" as="geometry" />
        </mxCell>
        <mxCell id="gKnQh6ZGJTZB9TMc3dMJ-27" style="edgeStyle=orthogonalEdgeStyle;rounded=0;orthogonalLoop=1;jettySize=auto;html=1;exitX=1;exitY=0.5;exitDx=0;exitDy=0;entryX=0;entryY=0.75;entryDx=0;entryDy=0;" parent="1" source="gKnQh6ZGJTZB9TMc3dMJ-28" target="gKnQh6ZGJTZB9TMc3dMJ-34" edge="1">
          <mxGeometry relative="1" as="geometry" />
        </mxCell>
        <mxCell id="gKnQh6ZGJTZB9TMc3dMJ-28" value="协同过滤&lt;br&gt;推荐算法" style="rounded=1;whiteSpace=wrap;html=1;fontSize=15;fillColor=#d5e8d4;strokeColor=#82b366;" parent="1" vertex="1">
          <mxGeometry x="390" y="160" width="120" height="40" as="geometry" />
        </mxCell>
        <mxCell id="gKnQh6ZGJTZB9TMc3dMJ-29" value="百度AI图像识别" style="rounded=1;whiteSpace=wrap;html=1;fontSize=15;fillColor=#fff2cc;strokeColor=#d6b656;" parent="1" vertex="1">
          <mxGeometry x="390" y="420" width="120" height="40" as="geometry" />
        </mxCell>
        <mxCell id="gKnQh6ZGJTZB9TMc3dMJ-30" style="edgeStyle=orthogonalEdgeStyle;rounded=0;orthogonalLoop=1;jettySize=auto;html=1;exitX=1;exitY=0.5;exitDx=0;exitDy=0;" parent="1" source="gKnQh6ZGJTZB9TMc3dMJ-20" edge="1">
          <mxGeometry relative="1" as="geometry">
            <mxPoint x="350" y="380" as="sourcePoint" />
            <mxPoint x="390" y="440" as="targetPoint" />
          </mxGeometry>
        </mxCell>
        <mxCell id="gKnQh6ZGJTZB9TMc3dMJ-31" style="edgeStyle=orthogonalEdgeStyle;rounded=0;orthogonalLoop=1;jettySize=auto;html=1;exitX=1;exitY=0.5;exitDx=0;exitDy=0;entryX=0;entryY=0.5;entryDx=0;entryDy=0;" parent="1" source="gKnQh6ZGJTZB9TMc3dMJ-32" target="gKnQh6ZGJTZB9TMc3dMJ-40" edge="1">
          <mxGeometry relative="1" as="geometry" />
        </mxCell>
        <mxCell id="gKnQh6ZGJTZB9TMc3dMJ-32" value="修改个人信息" style="rounded=1;whiteSpace=wrap;html=1;fontSize=15;fillColor=#d5e8d4;strokeColor=#82b366;" parent="1" vertex="1">
          <mxGeometry x="220" y="550" width="120" height="40" as="geometry" />
        </mxCell>
        <mxCell id="gKnQh6ZGJTZB9TMc3dMJ-33" value="UserCF算法" style="rounded=1;whiteSpace=wrap;html=1;fontSize=15;fillColor=#fff2cc;strokeColor=#d6b656;" parent="1" vertex="1">
          <mxGeometry x="550" y="120" width="120" height="40" as="geometry" />
        </mxCell>
        <mxCell id="gKnQh6ZGJTZB9TMc3dMJ-34" value="ItemCF算法" style="rounded=1;whiteSpace=wrap;html=1;fontSize=15;fillColor=#fff2cc;strokeColor=#d6b656;" parent="1" vertex="1">
          <mxGeometry x="550" y="180" width="120" height="40" as="geometry" />
        </mxCell>
        <mxCell id="gKnQh6ZGJTZB9TMc3dMJ-35" style="edgeStyle=orthogonalEdgeStyle;rounded=0;orthogonalLoop=1;jettySize=auto;html=1;exitX=1;exitY=0.5;exitDx=0;exitDy=0;entryX=0;entryY=0.5;entryDx=0;entryDy=0;" parent="1" source="gKnQh6ZGJTZB9TMc3dMJ-36" target="gKnQh6ZGJTZB9TMc3dMJ-37" edge="1">
          <mxGeometry relative="1" as="geometry" />
        </mxCell>
        <mxCell id="gKnQh6ZGJTZB9TMc3dMJ-36" value="充值" style="rounded=1;whiteSpace=wrap;html=1;fontSize=15;fillColor=#fff2cc;strokeColor=#d6b656;" parent="1" vertex="1">
          <mxGeometry x="220" y="490" width="120" height="40" as="geometry" />
        </mxCell>
        <mxCell id="gKnQh6ZGJTZB9TMc3dMJ-37" value="支付宝沙箱支付" style="rounded=1;whiteSpace=wrap;html=1;fontSize=15;fillColor=#fff2cc;strokeColor=#d6b656;" parent="1" vertex="1">
          <mxGeometry x="390" y="490" width="120" height="40" as="geometry" />
        </mxCell>
        <mxCell id="gKnQh6ZGJTZB9TMc3dMJ-38" value="&amp;nbsp; 查看地图位置；浏览房源图片" style="rounded=1;whiteSpace=wrap;html=1;fontSize=15;fillColor=#fff2cc;strokeColor=#d6b656;" parent="1" vertex="1">
          <mxGeometry x="550" y="50" width="120" height="40" as="geometry" />
        </mxCell>
        <mxCell id="gKnQh6ZGJTZB9TMc3dMJ-39" value="热力图、散点图、柱图、饼图、折线图等" style="rounded=1;whiteSpace=wrap;html=1;fontSize=15;fillColor=#d5e8d4;strokeColor=#82b366;" parent="1" vertex="1">
          <mxGeometry x="550" y="230" width="120" height="70" as="geometry" />
        </mxCell>
        <mxCell id="gKnQh6ZGJTZB9TMc3dMJ-40" value="阿里短信验证码修改密码" style="rounded=1;whiteSpace=wrap;html=1;fontSize=15;fillColor=#fff2cc;strokeColor=#d6b656;" parent="1" vertex="1">
          <mxGeometry x="390" y="550" width="120" height="40" as="geometry" />
        </mxCell>
        <mxCell id="gKnQh6ZGJTZB9TMc3dMJ-41" style="edgeStyle=orthogonalEdgeStyle;rounded=0;orthogonalLoop=1;jettySize=auto;html=1;exitX=1;exitY=0.5;exitDx=0;exitDy=0;entryX=0;entryY=0.5;entryDx=0;entryDy=0;fontSize=15;" parent="1" source="gKnQh6ZGJTZB9TMc3dMJ-42" target="gKnQh6ZGJTZB9TMc3dMJ-43" edge="1">
          <mxGeometry relative="1" as="geometry" />
        </mxCell>
        <mxCell id="gKnQh6ZGJTZB9TMc3dMJ-42" value="房价预测" style="rounded=1;whiteSpace=wrap;html=1;fontSize=15;fillColor=#6a00ff;strokeColor=#3700CC;fontColor=#ffffff;" parent="1" vertex="1">
          <mxGeometry x="220" y="360" width="120" height="40" as="geometry" />
        </mxCell>
        <mxCell id="gKnQh6ZGJTZB9TMc3dMJ-43" value="支持向量机" style="rounded=1;whiteSpace=wrap;html=1;fontSize=15;fillColor=#6a00ff;strokeColor=#3700CC;fontColor=#ffffff;" parent="1" vertex="1">
          <mxGeometry x="390" y="360" width="120" height="40" as="geometry" />
        </mxCell>
        <mxCell id="gKnQh6ZGJTZB9TMc3dMJ-49" style="edgeStyle=orthogonalEdgeStyle;rounded=0;orthogonalLoop=1;jettySize=auto;html=1;exitX=0.25;exitY=1;exitDx=0;exitDy=0;entryX=0.25;entryY=0;entryDx=0;entryDy=0;" parent="1" source="gKnQh6ZGJTZB9TMc3dMJ-44" target="gKnQh6ZGJTZB9TMc3dMJ-45" edge="1">
          <mxGeometry relative="1" as="geometry" />
        </mxCell>
        <mxCell id="gKnQh6ZGJTZB9TMc3dMJ-59" value="axios数据请求" style="edgeLabel;html=1;align=center;verticalAlign=middle;resizable=0;points=[];" parent="gKnQh6ZGJTZB9TMc3dMJ-49" vertex="1" connectable="0">
          <mxGeometry x="-0.3143" relative="1" as="geometry">
            <mxPoint as="offset" />
          </mxGeometry>
        </mxCell>
        <mxCell id="gKnQh6ZGJTZB9TMc3dMJ-44" value="vue前端" style="rounded=1;whiteSpace=wrap;html=1;fontSize=15;fillColor=#f5f5f5;strokeColor=#666666;fontColor=#333333;" parent="1" vertex="1">
          <mxGeometry x="1230" y="140" width="120" height="60" as="geometry" />
        </mxCell>
        <mxCell id="gKnQh6ZGJTZB9TMc3dMJ-50" style="edgeStyle=orthogonalEdgeStyle;rounded=0;orthogonalLoop=1;jettySize=auto;html=1;exitX=0.75;exitY=0;exitDx=0;exitDy=0;entryX=0.75;entryY=1;entryDx=0;entryDy=0;" parent="1" source="gKnQh6ZGJTZB9TMc3dMJ-45" target="gKnQh6ZGJTZB9TMc3dMJ-44" edge="1">
          <mxGeometry relative="1" as="geometry" />
        </mxCell>
        <mxCell id="gKnQh6ZGJTZB9TMc3dMJ-60" value="返回json" style="edgeLabel;html=1;align=center;verticalAlign=middle;resizable=0;points=[];" parent="gKnQh6ZGJTZB9TMc3dMJ-50" vertex="1" connectable="0">
          <mxGeometry x="0.0286" y="-1" relative="1" as="geometry">
            <mxPoint as="offset" />
          </mxGeometry>
        </mxCell>
        <mxCell id="gKnQh6ZGJTZB9TMc3dMJ-51" style="edgeStyle=orthogonalEdgeStyle;rounded=0;orthogonalLoop=1;jettySize=auto;html=1;exitX=0.25;exitY=1;exitDx=0;exitDy=0;entryX=0.25;entryY=0;entryDx=0;entryDy=0;" parent="1" source="gKnQh6ZGJTZB9TMc3dMJ-45" target="gKnQh6ZGJTZB9TMc3dMJ-46" edge="1">
          <mxGeometry relative="1" as="geometry" />
        </mxCell>
        <mxCell id="gKnQh6ZGJTZB9TMc3dMJ-57" value="数据请求" style="edgeLabel;html=1;align=center;verticalAlign=middle;resizable=0;points=[];" parent="gKnQh6ZGJTZB9TMc3dMJ-51" vertex="1" connectable="0">
          <mxGeometry x="-0.3429" y="-3" relative="1" as="geometry">
            <mxPoint as="offset" />
          </mxGeometry>
        </mxCell>
        <mxCell id="gKnQh6ZGJTZB9TMc3dMJ-45" value="Flask后端" style="rounded=1;whiteSpace=wrap;html=1;fontSize=15;fillColor=#f5f5f5;strokeColor=#666666;fontColor=#333333;" parent="1" vertex="1">
          <mxGeometry x="1230" y="270" width="120" height="60" as="geometry" />
        </mxCell>
        <mxCell id="gKnQh6ZGJTZB9TMc3dMJ-52" style="edgeStyle=orthogonalEdgeStyle;rounded=0;orthogonalLoop=1;jettySize=auto;html=1;exitX=0.75;exitY=0;exitDx=0;exitDy=0;entryX=0.75;entryY=1;entryDx=0;entryDy=0;" parent="1" source="gKnQh6ZGJTZB9TMc3dMJ-46" target="gKnQh6ZGJTZB9TMc3dMJ-45" edge="1">
          <mxGeometry relative="1" as="geometry" />
        </mxCell>
        <mxCell id="gKnQh6ZGJTZB9TMc3dMJ-58" value="数据返回" style="edgeLabel;html=1;align=center;verticalAlign=middle;resizable=0;points=[];" parent="gKnQh6ZGJTZB9TMc3dMJ-52" vertex="1" connectable="0">
          <mxGeometry y="-3" relative="1" as="geometry">
            <mxPoint as="offset" />
          </mxGeometry>
        </mxCell>
        <mxCell id="gKnQh6ZGJTZB9TMc3dMJ-46" value="MySQL数据库" style="rounded=1;whiteSpace=wrap;html=1;fontSize=15;fillColor=#f5f5f5;strokeColor=#666666;fontColor=#333333;" parent="1" vertex="1">
          <mxGeometry x="1230" y="400" width="120" height="60" as="geometry" />
        </mxCell>
        <mxCell id="gKnQh6ZGJTZB9TMc3dMJ-54" style="edgeStyle=orthogonalEdgeStyle;rounded=0;orthogonalLoop=1;jettySize=auto;html=1;exitX=0.5;exitY=1;exitDx=0;exitDy=0;entryX=0.5;entryY=0;entryDx=0;entryDy=0;" parent="1" source="gKnQh6ZGJTZB9TMc3dMJ-47" target="gKnQh6ZGJTZB9TMc3dMJ-53" edge="1">
          <mxGeometry relative="1" as="geometry" />
        </mxCell>
        <mxCell id="gKnQh6ZGJTZB9TMc3dMJ-47" value="数据爬取" style="rounded=1;whiteSpace=wrap;html=1;fontSize=15;fillColor=#f5f5f5;strokeColor=#666666;fontColor=#333333;" parent="1" vertex="1">
          <mxGeometry x="1020" y="270" width="120" height="60" as="geometry" />
        </mxCell>
        <mxCell id="gKnQh6ZGJTZB9TMc3dMJ-55" style="edgeStyle=orthogonalEdgeStyle;rounded=0;orthogonalLoop=1;jettySize=auto;html=1;exitX=1;exitY=0.5;exitDx=0;exitDy=0;entryX=0;entryY=0.5;entryDx=0;entryDy=0;" parent="1" source="gKnQh6ZGJTZB9TMc3dMJ-53" target="gKnQh6ZGJTZB9TMc3dMJ-46" edge="1">
          <mxGeometry relative="1" as="geometry" />
        </mxCell>
        <mxCell id="gKnQh6ZGJTZB9TMc3dMJ-56" value="保存" style="edgeLabel;html=1;align=center;verticalAlign=middle;resizable=0;points=[];" parent="gKnQh6ZGJTZB9TMc3dMJ-55" vertex="1" connectable="0">
          <mxGeometry y="1" relative="1" as="geometry">
            <mxPoint as="offset" />
          </mxGeometry>
        </mxCell>
        <mxCell id="gKnQh6ZGJTZB9TMc3dMJ-53" value="数据清洗、格式化、异常值处理" style="rounded=1;whiteSpace=wrap;html=1;fontSize=15;fillColor=#f5f5f5;strokeColor=#666666;fontColor=#333333;" parent="1" vertex="1">
          <mxGeometry x="1020" y="400" width="120" height="60" as="geometry" />
        </mxCell>
      </root>
    </mxGraphModel>
  </diagram>
</mxfile>
